<?xml version="1.0" encoding="iso-8859-1"?>
<!-- Uploaded to: SVG Repo, www.svgrepo.com, Generator: SVG Repo Mixer Tools -->
<svg version="1.1" id="Layer_1" xmlns="http://www.w3.org/2000/svg" xmlns:xlink="http://www.w3.org/1999/xlink" 
	 viewBox="0 0 511.996 511.996" xml:space="preserve">
<g>
	<path style="fill:#434A54;" d="M85.33,501.324c0,5.891-4.781,10.672-10.672,10.672s-10.672-4.781-10.672-10.672
		s4.781-10.672,10.672-10.672S85.33,495.434,85.33,501.324z"/>
	<path style="fill:#434A54;" d="M447.992,501.324c0,5.891-4.781,10.672-10.656,10.672c-5.906,0-10.688-4.781-10.688-10.672
		s4.781-10.672,10.688-10.672C443.211,490.652,447.992,495.434,447.992,501.324z"/>
</g>
<path style="fill:#E6E9ED;" d="M458.648,0H53.33c-5.891,0-10.672,4.766-10.672,10.656v479.996c0,5.891,4.781,10.672,10.672,10.672
	h405.318c5.906,0,10.688-4.781,10.688-10.672V10.656C469.336,4.766,464.555,0,458.648,0z"/>
<rect x="42.658" y="96.518" style="fill:#5D9CEC;" width="426.68" height="340.81"/>
<path style="fill:#434A54;" d="M447.992,42.655c0,17.672-14.312,32-32,32s-32-14.328-32-32c0-17.671,14.312-31.999,32-31.999
	S447.992,24.984,447.992,42.655z"/>
<path style="fill:#656D78;" d="M426.617,32.78c-0.438,5.875-5.531,10.281-11.406,9.844s-10.281-5.547-9.844-11.422
	s5.531-10.28,11.406-9.843S427.055,26.905,426.617,32.78z"/>
<g>
	<path style="fill:#5D9CEC;" d="M95.986,31.999c-5.875,0-10.656,4.766-10.656,10.656s4.781,10.672,10.656,10.672
		c5.906,0,10.672-4.781,10.672-10.672S101.893,31.999,95.986,31.999z"/>
	<path style="fill:#5D9CEC;" d="M138.658,31.999c-5.891,0-10.672,4.766-10.672,10.656s4.781,10.672,10.672,10.672
		s10.672-4.781,10.672-10.672S144.549,31.999,138.658,31.999z"/>
	<path style="fill:#5D9CEC;" d="M181.329,31.999c-5.891,0-10.671,4.766-10.671,10.656s4.78,10.672,10.671,10.672
		s10.656-4.781,10.656-10.672S187.22,31.999,181.329,31.999z"/>
</g>
<g>
	<path style="fill:#CCD1D9;" d="M42.658,85.327v21.328h128c0,5.891,4.78,10.672,10.671,10.672h149.32
		c5.906,0,10.688-4.781,10.688-10.672h127.999V85.327H42.658z"/>
	<path style="fill:#CCD1D9;" d="M298.649,245.326c0,58.906-47.742,106.672-106.664,106.672
		c-58.905,0-106.655-47.766-106.655-106.672c0-58.905,47.75-106.671,106.655-106.671
		C250.907,138.655,298.649,186.421,298.649,245.326z"/>
</g>
<path style="fill:#E6E9ED;" d="M298.649,277.326c0,58.906-47.742,106.672-106.664,106.672c-58.905,0-106.655-47.766-106.655-106.672
	s47.75-106.671,106.655-106.671C250.907,170.655,298.649,218.42,298.649,277.326z"/>
<path style="fill:#F5F7FA;" d="M298.649,309.326c0,58.906-47.742,106.671-106.664,106.671c-58.905,0-106.655-47.765-106.655-106.671
	s47.75-106.672,106.655-106.672C250.907,202.654,298.649,250.42,298.649,309.326z"/>
<path style="fill:#E6E9ED;" d="M245.329,309.326c0,29.453-23.875,53.328-53.344,53.328c-29.437,0-53.327-23.875-53.327-53.328
	s23.891-53.328,53.327-53.328C221.454,255.998,245.329,279.873,245.329,309.326z"/>
<polygon style="fill:#BDC2C9;" points="319.993,149.327 330.649,255.998 415.992,255.998 426.648,149.327 "/>
<polygon style="fill:#CCD1D9;" points="319.993,202.654 330.649,309.326 415.992,309.326 426.648,202.654 "/>
<polygon style="fill:#E6E9ED;" points="319.993,255.998 330.649,362.654 415.992,362.654 426.648,255.998 "/>
<polygon style="fill:#F5F7FA;" points="319.993,309.326 330.649,415.997 415.992,415.997 426.648,309.326 "/>
</svg>